<?xml version="1.0" encoding="UTF-8"?>
<svg width="100pt" height="100pt" version="1.1" viewBox="0 0 100 100" xmlns="http://www.w3.org/2000/svg">
 <g>
  <path d="m20.629 52.09c-1.8594 0.24609-3.4805 1.3789-4.3438 3.043-0.86719 1.6641-0.86328 3.6445 0.003906 5.3086l12.711 24.5c1.1406 2.1602 2.875 3.9492 5 5.1602l0.28125 0.14063 6.3516 2.6289 0.17969 0.070312h-0.003906c1.1445 0.375 2.0469 1.2617 2.4414 2.3984l0.66016 1.9219c0.18359 0.66016 0.63281 1.2148 1.2422 1.5312 0.60547 0.32031 1.3203 0.375 1.9688 0.14844 0.64844-0.22266 1.1758-0.70312 1.457-1.3281s0.29297-1.3398 0.03125-1.9727l-0.66016-1.9219c-0.89453-2.5781-2.9258-4.5977-5.5078-5.4805l-6.1094-2.5312-0.003906 0.003907c-1.2344-0.73828-2.2461-1.8047-2.918-3.082l-12.711-24.488c-0.125-0.22656-0.12891-0.49609-0.011719-0.72656 0.11328-0.22656 0.33594-0.38281 0.59375-0.41406 3.3008-0.44141 6.543 1.1328 8.2383 4l3.3906 5.8008c0.046875 0.082031 0.10156 0.16406 0.16016 0.23828 2.1602 2.8594 6 4.6914 9 2.6602 0.67578-0.44531 1.0938-1.1914 1.1211-2l1.2891-45c0.027343-0.93359 0.45312-1.8164 1.168-2.4219 0.71484-0.60156 1.6523-0.875 2.582-0.74609 1.6328 0.27734 2.8359 1.6914 2.8477 3.3477l0.62891 23.648 0.003907 0.003906c0.03125 1.1836 0.89844 2.1797 2.0664 2.3828 1.1641 0.19922 2.3125-0.44922 2.7422-1.5547 0.61719-1.6133 2.3047-2.5469 4-2.2109 1.6992 0.40234 2.8828 1.9375 2.8398 3.6797v0.65234c0.007813 1.0352 0.64844 1.957 1.6172 2.3164 0.96875 0.36328 2.0625 0.089844 2.7422-0.6875 0.80078-0.96094 2.0508-1.4219 3.2812-1.2188 1.7812 0.33203 3.0547 1.918 3 3.7305v0.62891c0.003906 1.0352 0.64844 1.957 1.6172 2.3164 0.96875 0.36328 2.0586 0.089844 2.7422-0.6875 0.69922-0.80469 1.7227-1.2539 2.7891-1.2188 1.9844 0.16016 3.4922 1.8438 3.4297 3.8281v19.41c0 5.9219-3.7891 10.43-5.4102 12.102h0.003906c-1.0273 1.0391-1.8125 2.2852-2.3008 3.6602l-0.71094 2c-0.25391 0.62891-0.24219 1.3359 0.039063 1.957 0.27734 0.61719 0.79688 1.0977 1.4375 1.3242 0.64062 0.22656 1.3477 0.18359 1.9531-0.125 0.60547-0.30469 1.0625-0.84766 1.2617-1.4961l0.71094-2h-0.003906c0.25-0.69141 0.64453-1.3203 1.1602-1.8398 2.5508-2.6094 6.8281-8.1016 6.8281-15.57l0.003906-19.422c0.039063-4.6641-3.5938-8.5352-8.25-8.7969-1.0195-0.027344-2.0352 0.125-3 0.45703-1.6875-4.1719-6.3516-6.2891-10.602-4.8086-1.0742-2.6445-3.4141-4.5664-6.2188-5.1094-1.6523-0.3125-3.3594-0.12891-4.9102 0.51953l-0.48047-18c-0.10547-4.0938-3.1328-7.5195-7.1797-8.1289-2.3281-0.3125-4.6797 0.38281-6.4648 1.9102-1.7852 1.5273-2.8398 3.7383-2.8945 6.0898l-1.2305 42.609c-0.45703-0.28516-0.86328-0.64844-1.1992-1.0703l-3.3086-5.6719h-0.003906c-2.7109-4.582-7.8984-7.1016-13.18-6.3984z"/>
  <path d="m20.469 25.578h0.089844c6.2617 1.4297 6.2617 4.1797 6.2617 5.0898 0 3.4492-3 5-5.7109 5v0.003906c-2.3008 0.003906-4.3789-1.3789-5.2695-3.5-0.23438-0.64062-0.71875-1.1523-1.3438-1.4219-0.62109-0.27344-1.3281-0.27734-1.9531-0.015625s-1.1172 0.76953-1.3633 1.4023c-0.24219 0.63281-0.21875 1.3398 0.070312 1.9531 1.3164 3.1445 4.0547 5.4727 7.3711 6.2617v2.4492c0 1.3789 1.1172 2.5 2.5 2.5 1.3789 0 2.5-1.1211 2.5-2.5v-2.3711c4.7344-0.82422 8.1875-4.9336 8.1875-9.7383 0-2.8398-1.3086-7.8789-10-9.9102h-0.089844c-6.2617-1.4297-6.2617-4.1797-6.2617-5.0898 0-3.4492 3-5 5.7109-5h0.003906c2.3008-0.007812 4.3789 1.375 5.2695 3.5 0.60156 1.1562 1.9961 1.6562 3.1953 1.1367s1.793-1.875 1.3633-3.1094c-1.3281-3.1328-4.0742-5.4453-7.3906-6.2188v-2.4883c0-1.3828-1.1172-2.5-2.5-2.5-1.3789 0-2.5 1.1172-2.5 2.5v2.4102c-4.7344 0.82422-8.1875 4.9336-8.1875 9.7383 0.019531 2.8398 1.3281 7.8906 10.047 9.918z"/>
 </g>
</svg>
